<svg width="163" height="68" viewBox="0 0 163 68" fill="none" xmlns="http://www.w3.org/2000/svg">
<path opacity="0.25" d="M162.147 67.2647C164.144 58.1159 160.646 35.0298 152.391 30.5943C148.203 28.4576 143.448 27.6941 138.802 28.4122C134.155 29.1302 129.853 31.2933 126.505 34.5945C126.625 20.3346 118.009 5.62444 104.447 1.12132C90.8855 -3.38181 73.7436 5.0015 71.1167 19.0437C67.897 10.3302 57.6074 5.45932 48.421 7.03541C39.2346 8.61151 31.6243 15.5163 27.6015 23.8546C23.5788 32.1929 22.6931 41.7995 23.3161 51.0685C20.8169 49.2808 17.8192 48.3238 14.7465 48.3326C11.6738 48.3415 8.6816 49.3157 6.19274 51.1176C3.70388 52.9195 1.84423 55.4581 0.876611 58.3744C-0.0910048 61.2908 -0.11765 64.4375 0.800432 67.3698L162.147 67.2647Z" fill="#97C5C7"/>
</svg>
